# xmcd
#
# Track frame offsets: 
#        150
#        13437
#        27725
#        40340
#        49785
#        61847
#        74327
#        86257
#        99132
#        108905
#        118542
#
# Disc length: 1753 seconds
#
# Revision: 3
# Processed by: cddbd v1.5.2PL0 Copyright (c) Steve Scherf et al.
# Submitted via: ExactAudioCopy v0.99pb5
#
DISCID=8c06d70b
DTITLE=Lynn Anderson - Lynn Anderson's Greatest Hits
DYEAR=1900
DGENRE=Country
TTITLE0=Rose Garden
TTITLE1=Cry
TTITLE2=How Can I Unlove You
TTITLE3=Stay There 'Til I Get There
TTITLE4=That's What Loving You Has Meant to Me
TTITLE5=Listen to a Country Song
TTITLE6=Hou're My Man
TTITLE7=No Love at All
TTITLE8=Don't Say Things You Don't Mean
TTITLE9=I'm Gonna Write a Song
TTITLE10=Nothing Between Us
EXTD=
EXTT0=
EXTT1=
EXTT2=
EXTT3=
EXTT4=
EXTT5=
EXTT6=
EXTT7=
EXTT8=
EXTT9=
EXTT10=
PLAYORDER=
